<?xml version="1.0" encoding="UTF-8" standalone="no"?>
<!-- Uploaded to: SVG Repo, www.svgrepo.com, Generator: SVG Repo Mixer Tools -->

<svg
   fill="#000000"
   width="643.99915"
   height="198.3885"
   viewBox="0 0 412.15945 126.96864"
   version="1.1"
   id="svg1"
   sodipodi:docname="bobslogo.svg"
   xml:space="preserve"
   inkscape:version="1.3.2 (091e20ef0f, 2023-11-25)"
   xmlns:inkscape="http://www.inkscape.org/namespaces/inkscape"
   xmlns:sodipodi="http://sodipodi.sourceforge.net/DTD/sodipodi-0.dtd"
   xmlns="http://www.w3.org/2000/svg"
   xmlns:svg="http://www.w3.org/2000/svg"><defs
     id="defs1" /><sodipodi:namedview
     id="namedview1"
     pagecolor="#ffffff"
     bordercolor="#000000"
     borderopacity="0.25"
     inkscape:showpageshadow="2"
     inkscape:pageopacity="0.0"
     inkscape:pagecheckerboard="0"
     inkscape:deskcolor="#d1d1d1"
     inkscape:zoom="1.2339013"
     inkscape:cx="228.5434"
     inkscape:cy="227.73296"
     inkscape:window-width="2560"
     inkscape:window-height="1355"
     inkscape:window-x="0"
     inkscape:window-y="0"
     inkscape:window-maximized="1"
     inkscape:current-layer="svg1" /><title
     id="title1">ionicons-v5-m</title><text
     xml:space="preserve"
     style="font-style:normal;font-variant:normal;font-weight:normal;font-stretch:normal;font-size:131.494px;font-family:'Roboto Condensed';-inkscape-font-specification:'Roboto Condensed, Normal';font-variant-ligatures:normal;font-variant-caps:normal;font-variant-numeric:normal;font-variant-east-asian:normal;mix-blend-mode:normal;fill:#000000;fill-opacity:1;stroke:none;stroke-width:3.98468;stroke-dasharray:none;stroke-opacity:1"
     x="-7.8346667"
     y="109.59313"
     id="text7"
     transform="scale(0.88718621,1.1271591)"><tspan
       x="-7.8346667"
       y="109.59313"
       style="font-style:normal;font-variant:normal;font-weight:normal;font-stretch:normal;font-size:131.494px;font-family:'Roboto Condensed';-inkscape-font-specification:'Roboto Condensed, Normal';font-variant-ligatures:normal;font-variant-caps:normal;font-variant-numeric:normal;font-variant-east-asian:normal;fill:#000000;fill-opacity:1;stroke:none;stroke-width:3.98468;stroke-dasharray:none;stroke-opacity:1"
       sodipodi:role="line"
       id="tspan2">BOBS'</tspan></text><g
     style="fill:#000000;stroke:none;stroke-width:0.548665;stroke-dasharray:none;stroke-opacity:1"
     id="g3"
     transform="matrix(1.3159592,0,0,1.3159592,561.19705,-6.3550705)"><path
       d="m -193.17759,46.194262 c 0,-1.677384 1.35971,-3.035074 3.03507,-3.035074 h 52.60796 c 1.67537,0 3.03508,1.35769 3.03508,3.035074 0,1.677385 -1.35971,3.035075 -3.03508,3.035075 h -52.60796 c -1.67536,0 -3.03507,-1.359713 -3.03507,-3.035075 z m 3.03507,37.013743 h 52.60796 c 1.67537,0 3.03508,-1.357686 3.03508,-3.035071 0,-1.677384 -1.35971,-3.035074 -3.03508,-3.035074 h -52.60796 c -1.67536,0 -3.03507,1.35769 -3.03507,3.035074 0,1.67536 1.35971,3.035071 3.03507,3.035071 z m 0,-22.79543 h 52.60796 c 1.67537,0 3.03508,-1.35769 3.03508,-3.035074 0,-1.677385 -1.35971,-3.035075 -3.03508,-3.035075 h -52.60796 c -1.67536,0 -3.03507,1.35769 -3.03507,3.035075 0,1.677384 1.35971,3.035074 3.03507,3.035074 z m 0,11.610172 h 52.60796 c 1.67537,0 3.03508,-1.35769 3.03508,-3.035074 0,-1.677385 -1.35971,-3.035075 -3.03508,-3.035075 h -52.60796 c -1.67536,0 -3.03507,1.35769 -3.03507,3.035075 0,1.677384 1.35971,3.035074 3.03507,3.035074 z m 67.78334,-37.545895 v 57.413496 h 6.07015 c 1.67536,0 3.03507,1.357686 3.03507,3.03507 0,1.677385 -1.35971,3.035079 -3.03507,3.035079 h -9.10522 -76.88856 -9.10522 c -1.67537,0 -3.03508,-1.357694 -3.03508,-3.035079 0,-1.677384 1.35971,-3.03507 3.03508,-3.03507 h 6.07015 V 34.476852 h -6.07015 c -1.67537,0 -3.03508,-1.35769 -3.03508,-3.035075 v -9.863993 c 0,-1.677384 1.35971,-3.035074 3.03508,-3.035074 h 33.8431 c 0.89838,0 1.75022,0.398606 2.32689,1.086556 2.83071,3.383097 6.97865,5.323521 11.37951,5.323521 4.40086,0 8.54879,-1.940424 11.3795,-5.323521 0.57667,-0.68795 1.42851,-1.086556 2.3269,-1.086556 h 33.8431 c 1.67536,0 3.03507,1.35769 3.03507,3.035074 v 9.863993 c 0,1.677385 -1.35971,3.035075 -3.03507,3.035075 z m -6.07015,0 h -70.81841 v 57.413496 h 70.81841 z m -38.2642,-13.024517 c 0.59286,0.592851 1.36983,0.888265 2.14681,0.888265 0.77698,0 1.55396,-0.295414 2.14681,-0.888265 l 11.44223,-11.442232 c 1.18571,-1.1836791 1.18571,-3.105893 0,-4.2915954 -1.1857,-1.1857026 -3.10589,-1.1857026 -4.2916,0 l -9.29946,9.2954214 -3.37703,-3.377026 c -1.1857,-1.185702 -3.10589,-1.185702 -4.2916,0 -1.18569,1.185702 -1.18569,3.107916 0,4.291596 z"
       id="path1"
       style="stroke:none;stroke-width:0.548665;stroke-dasharray:none;stroke-opacity:1" /></g></svg>
